<svg width="15" height="15" viewBox="0 0 15 15" fill="none" xmlns="http://www.w3.org/2000/svg">
<path d="M0.5 14C0.5 14.2761 0.723858 14.5 1 14.5L5.5 14.5C5.77614 14.5 6 14.2761 6 14C6 13.7239 5.77614 13.5 5.5 13.5L1.5 13.5L1.5 9.5C1.5 9.22386 1.27614 9 1 9C0.723858 9 0.5 9.22386 0.5 9.5L0.5 14ZM14.5 0.999999C14.5 0.723858 14.2761 0.5 14 0.499999L9.5 0.5C9.22386 0.5 9 0.723857 9 1C9 1.27614 9.22386 1.5 9.5 1.5L13.5 1.5L13.5 5.5C13.5 5.77614 13.7239 6 14 6C14.2761 6 14.5 5.77614 14.5 5.5L14.5 0.999999ZM1.35355 14.3536L14.3536 1.35355L13.6464 0.646446L0.646447 13.6464L1.35355 14.3536Z" fill="currentColor"/>
</svg>
