<svg width="47" height="30" viewBox="0 0 47 30" fill="none" xmlns="http://www.w3.org/2000/svg">
<path d="M2 13C0.895431 13 9.65645e-08 13.8954 0 15C-9.65645e-08 16.1046 0.89543 17 2 17L2 13ZM46.4142 16.4142C47.1953 15.6332 47.1953 14.3668 46.4142 13.5858L33.6863 0.857867C32.9052 0.0768183 31.6389 0.0768182 30.8579 0.857867C30.0768 1.63892 30.0768 2.90525 30.8579 3.68629L42.1716 15L30.8579 26.3137C30.0768 27.0948 30.0768 28.3611 30.8579 29.1421C31.6389 29.9232 32.9052 29.9232 33.6863 29.1421L46.4142 16.4142ZM2 17L45 17L45 13L2 13L2 17Z" fill="#CECECE"/>
</svg>
